<svg xmlns="http://www.w3.org/2000/svg" width="109.526" height="108.125" viewBox="0 0 109.526 108.125"><defs><style>.a{fill:#b4dd7f;}.b{fill:#ff826e;}.c{fill:#fcd770;}.d{fill:#e6e9ed;}.e{fill:#f0d0b4;}</style></defs><g transform="translate(1.767 1.767)"><g transform="translate(17.665 72.181)"><path class="a" d="M32.121,50.491l-8.5-7.631L12,62.539l14.132-1.767,5.3,12.366,8.992-15.21Z" transform="translate(-12 -42.86)"/></g><g transform="translate(59.904 72.181)"><path class="a" d="M52.71,42.86l-8.5,7.631-8.3,7.437L44.9,73.139l5.3-12.366,14.132,1.767Z" transform="translate(-35.91 -42.86)"/></g><g transform="translate(0 0)"><path class="b" d="M75.458,2h-.482A31.7,31.7,0,0,0,55.138,8.96L55,9.066l-.141-.106A31.7,31.7,0,0,0,35.017,2H33.745A31.755,31.755,0,0,0,2,33.745a30.294,30.294,0,0,0,.212,3.586A42.21,42.21,0,0,0,20.57,64.845l1.145.751,9.575,8.585,8.5,7.631,8.3,7.437,3.833,3.427a4.583,4.583,0,0,0,6.148,0L61.9,89.25l8.3-7.437,8.5-7.631L97.429,57.4a31.78,31.78,0,0,0,9.7-31.061C103.707,11.886,90.308,2,75.458,2Z" transform="translate(-2 -2)"/></g><g transform="translate(0.212 35.331)"><path class="c" d="M30.173,22V50.265H21.6l-9.133-8.2A31.816,31.816,0,0,1,4.664,31.363,31.063,31.063,0,0,1,2.12,22Z" transform="translate(-2.12 -22)"/></g><g transform="translate(35.331 35.331)"><path class="c" d="M29.066,25.533v21.2a3.543,3.543,0,0,1-3.533,3.533H22V22h3.533A3.543,3.543,0,0,1,29.066,25.533Z" transform="translate(-22 -22)"/></g><g transform="translate(28.265 35.331)"><path class="d" d="M18,22h7.066V50.265H18Z" transform="translate(-18 -22)"/></g><g transform="translate(42.397 12.366)"><path class="e" d="M59.564,37.265A3.543,3.543,0,0,1,63.1,40.8a3.559,3.559,0,0,1-3.533,3.533H57.8a3.543,3.543,0,0,1,3.533,3.533A3.559,3.559,0,0,1,57.8,51.4H56.031a3.559,3.559,0,0,1,3.533,3.533,3.543,3.543,0,0,1-3.533,3.533H36.546a10.255,10.255,0,0,1-3.339-.548L29.533,56.7H26V35.5h.689A15.222,15.222,0,0,0,41.9,20.288V10.767A1.772,1.772,0,0,1,43.665,9a5.308,5.308,0,0,1,5.3,5.3V26.665A3.543,3.543,0,0,0,52.5,30.2h8.833a3.543,3.543,0,0,1,3.533,3.533,3.559,3.559,0,0,1-3.533,3.533Z" transform="translate(-26 -9)"/></g></g><g transform="translate(0 0)"><path d="M77.007,1H75.734A33.716,33.716,0,0,0,55.766,7.6,33.645,33.645,0,0,0,35.792,1H34.518A33.519,33.519,0,0,0,12.143,59.476L29.8,75.3,17.081,96.826l16.383-2.049,6.148,14.346,9.663-16.356L51.5,94.761a6.382,6.382,0,0,0,8.524,0l2.226-1.994,9.663,16.356L78.06,94.779l16.383,2.049L81.726,75.306,99.381,59.478A33.519,33.519,0,0,0,77.007,1ZM5.051,39.864H29.265V64.6H23.145L14.5,56.846A30,30,0,0,1,5.051,39.864Zm36.58,0A1.769,1.769,0,0,1,43.4,41.631v21.2A1.769,1.769,0,0,1,41.631,64.6H39.864V39.864ZM36.331,64.6H32.8V39.864h3.533ZM32.48,77.71l5.828,5.225-4.831,8.282-9.695,1.212Zm7.635,23.617-3.577-8.345,4.457-7.639,5.6,5.021Zm31.3,0-6.48-10.965,5.6-5.021,4.457,7.639Zm16.332-8.9-9.695-1.212-4.831-8.282,5.828-5.225Zm9.281-35.582L57.665,92.132a2.924,2.924,0,0,1-3.805,0l-26.774-24H41.631A5.292,5.292,0,0,0,46.605,64.6h1.805l3.4,1.132a12.363,12.363,0,0,0,3.911.634H75.195a5.306,5.306,0,0,0,5.3-5.3,5.241,5.241,0,0,0-.708-2.6A5.221,5.221,0,0,0,81.553,51.4a5.221,5.221,0,0,0,1.767-7.066,5.289,5.289,0,0,0-2.825-9.767H71.662A1.769,1.769,0,0,1,69.9,32.8V20.432a7.073,7.073,0,0,0-7.066-7.066A3.537,3.537,0,0,0,59.3,16.9v9.531A13.354,13.354,0,0,1,46.587,39.811a5.291,5.291,0,0,0-4.957-3.48h-37c-.037-.6-.1-1.2-.1-1.812A30.02,30.02,0,0,1,34.518,4.533h1.274A30.094,30.094,0,0,1,54.525,11.1l1.238.986,1.1-.876L57,11.1a30.1,30.1,0,0,1,18.732-6.57h1.274A29.986,29.986,0,0,1,97.024,56.846ZM46.93,43.319a16.858,16.858,0,0,0,15.9-16.89V16.9a3.537,3.537,0,0,1,3.533,3.533V32.8a5.306,5.306,0,0,0,5.3,5.3h8.833a1.767,1.767,0,1,1,0,3.533H73.428v3.533h5.3a1.767,1.767,0,0,1,0,3.533h-5.3V52.23h3.533a1.767,1.767,0,1,1,0,3.533H73.428V59.3h1.767a1.767,1.767,0,0,1,0,3.533H55.717a8.8,8.8,0,0,1-2.795-.454l-3.939-1.313H46.93Z" transform="translate(-1 -1)"/><path d="M7.035,18.15l3.051,1.782a23.032,23.032,0,0,1,19.806-11.4V5A26.576,26.576,0,0,0,7.035,18.15Z" transform="translate(3.626 2.066)"/><path d="M5.341,18.444l3.452.753a22.949,22.949,0,0,1,.987-3.305l-3.3-1.267A26.453,26.453,0,0,0,5.341,18.444Z" transform="translate(2.328 9.444)"/><path d="M57.1,19.974a22.959,22.959,0,0,1-.235,3.268l3.5.507a26.416,26.416,0,0,0,.272-3.775Z" transform="translate(41.825 13.544)"/><path d="M53.817,29.623l2.666,2.319a26.367,26.367,0,0,0,2.272-3.026L55.783,27A22.93,22.93,0,0,1,53.817,29.623Z" transform="translate(39.487 18.932)"/><path d="M55.821,26.706l3.212,1.473a26.529,26.529,0,0,0,1.325-3.544l-3.39-1A22.857,22.857,0,0,1,55.821,26.706Z" transform="translate(41.023 16.354)"/><path d="M27,45h3.533v3.533H27Z" transform="translate(18.93 32.728)"/><path d="M31,45h3.533v3.533H31Z" transform="translate(21.996 32.728)"/><path d="M35,45h3.533v3.533H35Z" transform="translate(25.063 32.728)"/></g></svg>