<svg xmlns="http://www.w3.org/2000/svg" width="109" height="109.543" viewBox="0 0 109 109.543"><defs><style>.a{fill:#118f5e;}.b{fill:#665e66;}.c{fill:#544f57;}.d{fill:#c18678;}.e{fill:#b46e59;}.f{fill:#2bb180;}</style></defs><g transform="translate(-1.269)"><g transform="translate(2.87 1.604)"><path class="a" d="M179.076,440.515H168.4c-3.053-12.219-9.243-16.987-9.243-16.987C170.754,420.97,176.524,430.307,179.076,440.515Z" transform="translate(-126.979 -334.181)"/><path class="b" d="M240.558,11.895V113.832H229.009V11.895a4.4,4.4,0,0,1,4.4-4.4h2.751a4.4,4.4,0,0,1,4.4,4.4Z" transform="translate(-181.884 -7.498)"/><path class="c" d="M229.009,87.323q5.774-.045,11.549,0V149.71q-5.773.045-11.549,0Z" transform="translate(-181.884 -70.227)"/><path class="c" d="M234.226,7.5c-.993,0-1.8,1.968-1.8,4.4V113.835h-3.413V11.9a4.4,4.4,0,0,1,4.4-4.4Z" transform="translate(-181.888 -7.5)"/><path class="d" d="M113.72,85.745A15.652,15.652,0,0,1,98.928,99.823c-.764.036-1.53.073-2.294.107l-2.861-6.155-2.306,6.372q-23.145.9-46.291.4L41.554,82.863l-5.381,16.1L33.371,88.6l-5.03,11.41q-1.983-.087-3.967-.182A15.652,15.652,0,0,1,9.581,85.745a159.327,159.327,0,0,1,0-32.476A15.652,15.652,0,0,1,24.374,39.192q31.878-1.54,63.76-.445l3.006,11.121,4.767-10.815q1.512.067,3.021.139A15.652,15.652,0,0,1,113.72,53.27a159.31,159.31,0,0,1,0,32.475Z" transform="translate(-8.752 -31.703)"/><path class="e" d="M17.206,55.425a163.7,163.7,0,0,0,0,33.361,16.107,16.107,0,0,0,11.168,13.744l-.032.073q-1.983-.087-3.967-.182A15.652,15.652,0,0,1,9.583,88.343a159.327,159.327,0,0,1,0-32.476A15.652,15.652,0,0,1,24.376,41.79q2.134-.1,4.27-.193A16.108,16.108,0,0,0,17.206,55.425Z" transform="translate(-8.753 -34.301)"/><path class="f" d="M289.639,355.8s-3.666,2.824-6.748,9.7c-2.232,4.979-4.158,12.084-4.158,21.782H267.985C267.985,374.773,272.292,351.973,289.639,355.8Z" transform="translate(-212.521 -280.945)"/><path class="a" d="M295.041,402.688c-2.232,4.979-4.158,12.084-4.158,21.782h-7.441C284.191,418.452,286.7,407.078,295.041,402.688Z" transform="translate(-224.671 -318.136)"/><path class="f" d="M291.3,440.515h10.674c3.053-12.219,9.243-16.987,9.243-16.987C299.623,420.97,293.852,430.307,291.3,440.515Z" transform="translate(-230.849 -334.181)"/></g><g transform="translate(1.269 0)"><path d="M109.435,23.007a17.262,17.262,0,0,0-4.216-9.677,1.6,1.6,0,1,0-2.412,2.116,14.072,14.072,0,0,1,3.435,7.888,158.465,158.465,0,0,1,0,32.149,14.145,14.145,0,0,1-4.3,8.792,13.978,13.978,0,0,1-8.971,3.847l-1.216.058L89.347,63a1.6,1.6,0,0,0-2.964.13l-1.939,5.355c-14.528.541-29.261.671-43.835.387L37.245,52.443a1.6,1.6,0,0,0-3.094-.187l-3.7,11.063-1.416-5.241a1.6,1.6,0,0,0-3.017-.229L21.433,68.255q-1.432-.064-2.864-.133A13.98,13.98,0,0,1,9.6,64.275a14.145,14.145,0,0,1-4.3-8.791,158.465,158.465,0,0,1,0-32.149,14.145,14.145,0,0,1,4.3-8.792A13.979,13.979,0,0,1,18.57,10.7c20.707-1,41.708-1.163,62.443-.484l2.7,9.976a1.6,1.6,0,0,0,3.018.228l4.324-9.81q.958.043,1.919.09a13.837,13.837,0,0,1,5.287,1.317,1.6,1.6,0,0,0,1.373-2.9,17.035,17.035,0,0,0-6.5-1.622Q91.61,7.416,90.1,7.35a1.6,1.6,0,0,0-1.54.956l-2.935,6.659L83.8,8.229a1.6,1.6,0,0,0-1.494-1.185q-9.548-.328-19.159-.417V6a6.009,6.009,0,0,0-6-6H54.394a6.009,6.009,0,0,0-6,6v.628c-10.018.1-20.03.381-29.975.861A17.258,17.258,0,0,0,2.1,23.008a161.7,161.7,0,0,0,0,32.8A17.257,17.257,0,0,0,18.414,71.328q1.987.1,3.974.182a1.6,1.6,0,0,0,1.538-.956l3.2-7.254,1.618,5.987a1.6,1.6,0,0,0,3.071.09L35.3,58.943l2.423,11.829a1.6,1.6,0,0,0,1.538,1.282q4.555.1,9.129.138v5.687a1.6,1.6,0,1,0,3.209,0V72.217q2.039.011,4.081.011,2.129,0,4.259-.013V88.4q-.614,1.671-1.126,3.531a62.014,62.014,0,0,0-2.062,14.408H51.6V84.3a1.6,1.6,0,0,0-3.209,0v8.164c-3.745-3.179-8.405-4.242-13.685-3.078a1.607,1.607,0,0,0-.64,2.834,18.759,18.759,0,0,1,3.248,3.709,36.207,36.207,0,0,1,4.874,10.407H34.5a1.6,1.6,0,0,0,0,3.209H81.319a1.6,1.6,0,0,0,0-3.209H76.1a36.2,36.2,0,0,1,4.874-10.407,18.783,18.783,0,0,1,3.243-3.7,1.6,1.6,0,0,0-.633-2.838,15.87,15.87,0,0,0-10.213.827c3.02-8.805,7.548-12.442,7.6-12.479a1.6,1.6,0,0,0-.634-2.838c-5.142-1.135-9.625-.2-13.326,2.771a19.131,19.131,0,0,0-3.858,4.287v-9.76c7.523-.072,15.04-.252,22.5-.541a1.6,1.6,0,0,0,1.447-1.057l.982-2.713L89.3,70.508a1.605,1.605,0,0,0,1.527.927q1.148-.051,2.3-.107A17.257,17.257,0,0,0,109.435,55.81a161.687,161.687,0,0,0,0-32.8ZM51.6,6a2.8,2.8,0,0,1,2.794-2.792h2.751A2.8,2.8,0,0,1,59.939,6v.6q-4.169-.022-8.34,0V6ZM38.449,92.128c3.972-.107,7.255,1.537,9.941,4.963v9.243H45.528A37.515,37.515,0,0,0,38.449,92.128Zm41.392,0a37.512,37.512,0,0,0-7.08,14.206H65.425c1.363-4.547,3.285-8.171,5.612-10.556A11.371,11.371,0,0,1,79.841,92.128ZM69.017,80.168a11.185,11.185,0,0,1,7.572-2.53,38.206,38.206,0,0,0-7.406,15.448c-3.071,2.931-5.475,7.379-7.1,13.248H59.963a59.39,59.39,0,0,1,1.944-13.557C63.5,86.985,65.959,82.625,69.017,80.168Z" transform="translate(-1.269 0)"/><path d="M190.942,137.758a1.6,1.6,0,0,0-1.127,1.532v16.664a1.6,1.6,0,1,0,3.209,0V144.437l8.342,12.08a1.833,1.833,0,0,0,2.065.775,1.917,1.917,0,0,0,1.291-1.916l-.156-16.132a1.6,1.6,0,0,0-3.209.031l.114,11.747-8.732-12.644a1.6,1.6,0,0,0-1.8-.62Z" transform="translate(-149.475 -108.202)"/><path d="M366.172,137.654a1.6,1.6,0,0,0-1.6,1.6v16.681a1.6,1.6,0,0,0,1.333,1.582,16.264,16.264,0,0,0,2.03.038c.887,0,2.186,0,4.1-.015a1.6,1.6,0,1,0-.018-3.209c-1.49.008-3.1.014-4.232.014v-15.09A1.6,1.6,0,0,0,366.172,137.654Z" transform="translate(-286.838 -108.203)"/><path d="M54.45,139.258V152.6a1.776,1.776,0,0,1-.892,1.563c-1.058.588-2.189-.474-2.255-.538a1.6,1.6,0,0,0-2.267,2.271,5.7,5.7,0,0,0,3.842,1.667,4.557,4.557,0,0,0,2.238-.594A4.986,4.986,0,0,0,57.66,152.6V139.258a1.6,1.6,0,0,0-3.21,0Z" transform="translate(-38.45 -108.202)"/><path d="M424.425,141.575a1.6,1.6,0,0,0,0-3.209h-6.97a1.6,1.6,0,0,0-1.6,1.6v16.542a1.6,1.6,0,0,0,1.6,1.6h6.97a1.6,1.6,0,1,0,0-3.209h-5.365v-5.062h4.852a1.6,1.6,0,0,0,0-3.209h-4.852v-5.062Z" transform="translate(-327.149 -108.762)"/><path d="M278.941,140.863a6.708,6.708,0,0,1,3.769,1.151,1.6,1.6,0,0,0,1.8-2.659,9.952,9.952,0,1,0-5.566,18.2c5.188,0,8.811-4.092,8.811-9.952a1.6,1.6,0,0,0-1.6-1.6h-4.994a1.6,1.6,0,0,0,0,3.209h3.258c-.441,2.632-2.035,5.138-5.469,5.138a6.743,6.743,0,1,1,0-13.485Z" transform="translate(-211.71 -108.203)"/><path d="M109.389,137.654a1.6,1.6,0,0,0-1.6,1.6v11.488a6.442,6.442,0,0,0,3.36,5.679,7.217,7.217,0,0,0,3.939,1.133h.012a7.642,7.642,0,0,0,3.471-.8c3.33-1.677,4.029-4.2,4.029-6.021V139.259a1.6,1.6,0,1,0-3.209,0v11.476c0,.865-.235,2.133-2.263,3.155a4.464,4.464,0,0,1-2.027.46h-.007a4,4,0,0,1-2.215-.628,3.3,3.3,0,0,1-1.878-2.975V139.259a1.6,1.6,0,0,0-1.6-1.6Z" transform="translate(-84.995 -108.203)"/></g></g></svg>