<svg xmlns="http://www.w3.org/2000/svg" width="80.214" height="95.629" viewBox="0 0 80.214 95.629"><defs><style>.a{fill:#f1d0a4;}.b{fill:#edbb87;}.c{fill:#b3e59f;}.d{fill:#95d6a4;}</style></defs><g transform="translate(-41.267)"><g transform="translate(42.665 1.401)"><path class="a" d="M119.734,99.86V64.139A36.076,36.076,0,1,0,54.015,43.576V43.6a8.811,8.811,0,0,1-1.381,4.739l-3.586,5.625a1.868,1.868,0,0,0,1.575,2.872h8.71V73.958a8.592,8.592,0,0,0,8.592,8.592h7.854V99.86a1.868,1.868,0,0,0,1.868,1.868h40.22a1.868,1.868,0,0,0,1.868-1.868Z" transform="translate(-48.752 -7.5)"/><path class="b" d="M257.885,7.5q-1.414,0-2.8.108a36.085,36.085,0,0,1,28.535,53.851,12.711,12.711,0,0,0-1.694,6.309v33.96h3.735a1.868,1.868,0,0,0,1.868-1.868V64.139A36.078,36.078,0,0,0,257.885,7.5Z" transform="translate(-216.546 -7.5)"/><g transform="translate(20.99 15.716)"><path class="c" d="M195.989,104.368c-4.367-9.89-18.759-15.714-34.324-11.144a.747.747,0,0,0-.319,1.239,19.609,19.609,0,0,1,4.021,5.934c1.453,3.372,1.132,5.4,1.817,8.682.88,4.212,3.228,9.571,6.663,12.45,7.428,6.226,20.185,1.07,21.132.673C196.125,119.646,199.255,111.763,195.989,104.368Z" transform="translate(-161.132 -91.642)"/><path class="d" d="M250.336,112.4c-2.146-4.859-6.712-8.736-12.649-10.881a19.16,19.16,0,0,1,7.045,8.08q.087.2.169.4c4.32,10.533-4.923,21.533-16.131,19.53q-.406-.073-.81-.166c.077.068.155.137.233.2,7.428,6.226,20.185,1.07,21.132.673C250.472,127.677,253.6,119.794,250.336,112.4Z" transform="translate(-215.479 -99.673)"/></g></g><path d="M72.571,75.05H61.837a7.2,7.2,0,0,1-7.191-7.191V50.737a1.4,1.4,0,0,0-1.4-1.4h-8.71a.451.451,0,0,1-.394-.718l3.586-5.625a10.192,10.192,0,0,0,1.6-5.492v-.025a34.321,34.321,0,0,1,7.389-21.4,1.4,1.4,0,0,0-2.2-1.731,37.1,37.1,0,0,0-7.987,23.13V37.5a7.4,7.4,0,0,1-1.162,3.985l-3.586,5.625a3.269,3.269,0,0,0,2.756,5.026h7.309V67.859a10,10,0,0,0,9.992,9.992H68.29V94.228a1.4,1.4,0,0,0,2.8,0V77.851h1.479a1.4,1.4,0,1,0,0-2.8ZM85.088,20.171c5.808,2.023,10.12,5.659,12.142,10.237A15.519,15.519,0,0,1,98.41,34.68a1.4,1.4,0,1,0,2.778-.361,18.321,18.321,0,0,0-1.395-5.042c-2.339-5.3-7.234-9.47-13.783-11.751a36.751,36.751,0,0,0-22.216-.171,2.147,2.147,0,0,0-.926,3.562A18.181,18.181,0,0,1,66.6,26.426a16.655,16.655,0,0,1,1.246,5.22c.116.981.236,1.995.486,3.194.848,4.059,3.225,9.961,7.134,13.238,5.561,4.661,15.149,3.583,21.326,1.367q.883,1.851,1.618,3.779a1.4,1.4,0,1,0,2.618-1q-.891-2.34-1.994-4.574a29.912,29.912,0,0,0,1.923-6.368,1.4,1.4,0,0,0-2.757-.5,26.408,26.408,0,0,1-.921,3.588,51.81,51.81,0,0,0-7.942-10.417,11.822,11.822,0,0,0-1.908-7.578,1.4,1.4,0,0,0-2.338,1.543,9,9,0,0,1,1.33,3.272,53.271,53.271,0,0,0-9.445-6.617,1.4,1.4,0,0,0-1.351,2.454A50.238,50.238,0,0,1,88.089,36.7a28.711,28.711,0,0,0-8.764-.031,1.4,1.4,0,0,0,.417,2.77,25.857,25.857,0,0,1,11.393.828,50.132,50.132,0,0,1,4.371,6.659c-3.547,1.211-12.689,3.654-18.236-1-2.266-1.9-5.059-6.242-6.191-11.663-.225-1.078-.338-2.029-.446-2.95a19.186,19.186,0,0,0-1.456-6,20.736,20.736,0,0,0-3.563-5.562,33.655,33.655,0,0,1,19.474.414ZM84,0A37.412,37.412,0,0,0,59.03,9.533,1.4,1.4,0,1,0,60.9,11.622a34.675,34.675,0,0,1,57.781,25.855A35.245,35.245,0,0,1,106.4,64.056a1.4,1.4,0,0,0,1.829,2.122,38.223,38.223,0,0,0,4.019-4.03V94.228a1.4,1.4,0,0,0,2.8,0V58.475A37.479,37.479,0,0,0,84,0Z" transform="translate(0)"/></g></svg>