<svg xmlns="http://www.w3.org/2000/svg" width="109" height="109" viewBox="0 0 109 109"><defs><style>.a{fill:#dc9600;}.b{fill:#fab400;}.c{fill:#0a5078;}.d{fill:#00a0c8;}.e{fill:#c80a50;}.f{fill:#a00028;}</style></defs><g transform="translate(-4 -4)"><g transform="translate(4 4)"><g transform="translate(97.321 31.142)"><path class="a" d="M55.946,27.786h1.946A7.786,7.786,0,0,0,65.679,20V82.286a7.786,7.786,0,0,1-7.786,7.786H55.946A1.947,1.947,0,0,1,54,88.125V29.732A1.947,1.947,0,0,1,55.946,27.786Z" transform="translate(-54 -20)"/></g><g transform="translate(0 23.357)"><path class="b" d="M105.214,78.286H11.786A7.786,7.786,0,0,1,4,70.5V16H105.214A7.786,7.786,0,0,1,113,23.786V86.071A7.786,7.786,0,0,0,105.214,78.286Z" transform="translate(-4 -16)"/></g><g transform="translate(13.625 62.285)"><path class="a" d="M34.357,36A23.358,23.358,0,0,0,11,59.357H57.714A23.358,23.358,0,0,0,34.357,36Z" transform="translate(-11 -36)"/></g><g transform="translate(70.531 23.357)"><path class="a" d="M40.236,16c1.834,11.208,8.555,19.165,12.381,22.9a3.878,3.878,0,0,0,5.434,0C61.88,35.161,68.6,27.2,70.429,16Z" transform="translate(-40.236 -16)"/></g><g transform="translate(0 7.785)"><path class="a" d="M13.732,70.286H11.786A7.786,7.786,0,0,0,4,78.071V15.786A7.786,7.786,0,0,1,11.786,8h1.946a1.947,1.947,0,0,1,1.946,1.946V68.339A1.947,1.947,0,0,1,13.732,70.286Z" transform="translate(-4 -8)"/></g><g transform="translate(15.571 62.285)"><circle class="c" cx="23.357" cy="23.357" r="23.357"/></g><g transform="translate(19.464 66.178)"><circle class="d" cx="19.464" cy="19.464" r="19.464"/></g><path class="e" d="M37.949,42.57a1.947,1.947,0,0,0-2.143-.413L22.181,48a1.943,1.943,0,0,0-.611,3.163l7.786,7.786a1.948,1.948,0,0,0,1.378.572,1.977,1.977,0,0,0,.368-.035,1.943,1.943,0,0,0,1.419-1.146l5.839-13.625a1.941,1.941,0,0,0-.411-2.141Z" transform="translate(12.088 31.964)"/><path class="c" d="M34.946,53.355,27.161,45.57A1.943,1.943,0,0,0,24,46.181L18.159,59.806a1.944,1.944,0,0,0,1.787,2.711,1.926,1.926,0,0,0,.767-.158L34.337,56.52a1.943,1.943,0,0,0,.609-3.165Z" transform="translate(9.251 34.804)"/><g transform="translate(31.143 77.857)"><circle class="b" cx="7.786" cy="7.786" r="7.786"/></g><g transform="translate(35.036 81.749)"><circle class="a" cx="3.893" cy="3.893" r="3.893"/></g><g transform="translate(19.464 66.178)"><path class="b" d="M24.946,38A19.479,19.479,0,0,0,23,38.1v1.849a1.946,1.946,0,0,0,3.893,0V38.1A19.479,19.479,0,0,0,24.946,38Z" transform="translate(-5.482 -38)"/><path class="b" d="M24.946,56A1.947,1.947,0,0,0,23,57.946V59.8a19.513,19.513,0,0,0,3.893,0V57.946A1.947,1.947,0,0,0,24.946,56Z" transform="translate(-5.482 -20.964)"/><path class="b" d="M14.1,50.893h1.849a1.946,1.946,0,0,0,0-3.893H14.1a19.513,19.513,0,0,0,0,3.893Z" transform="translate(-14 -29.482)"/><path class="b" d="M32,48.946a1.947,1.947,0,0,0,1.946,1.946H35.8A19.513,19.513,0,0,0,35.8,47H33.946A1.947,1.947,0,0,0,32,48.946Z" transform="translate(3.036 -29.482)"/></g><g transform="translate(70.071)"><path class="e" d="M54.244,4.054c-8.506.7-14.573,8.453-14.23,16.983.545,13.516,8.518,23.071,12.827,27.275a3.878,3.878,0,0,0,5.434,0c4.463-4.358,12.852-14.45,12.852-28.737A15.573,15.573,0,0,0,54.244,4.054Z" transform="translate(-40 -4)"/></g><g transform="translate(77.842 9.732)"><circle class="f" cx="7.786" cy="7.786" r="7.786"/></g><g transform="translate(77.842 7.785)"><circle class="d" cx="7.786" cy="7.786" r="7.786"/></g><g transform="translate(25.304 33.089)"><path class="e" d="M75.393,63.821H65.661a1.946,1.946,0,0,1,0-3.893h9.732a3.9,3.9,0,0,0,3.893-3.893V48.25a3.9,3.9,0,0,0-3.893-3.893H24.786A7.794,7.794,0,0,1,17,36.571V28.786A7.794,7.794,0,0,1,24.786,21H57.875a1.946,1.946,0,0,1,0,3.893H24.786a3.9,3.9,0,0,0-3.893,3.893v7.786a3.9,3.9,0,0,0,3.893,3.893H75.393a7.794,7.794,0,0,1,7.786,7.786v7.786A7.794,7.794,0,0,1,75.393,63.821Z" transform="translate(-17 -21)"/></g><g transform="translate(70.071 70.071)"><circle class="d" cx="3.893" cy="3.893" r="3.893"/></g><g transform="translate(62.286 31.142)"><circle class="d" cx="3.893" cy="3.893" r="3.893"/></g></g></g></svg>