<svg xmlns="http://www.w3.org/2000/svg" width="108.881" height="108.881" viewBox="0 0 108.881 108.881"><defs><style>.a{fill:#33d6f5;}.b{fill:#ff7d97;}.c{fill:#ffa96b;}.d{fill:#ffcd69;}</style></defs><path class="a" d="M29.488,203.617l48.169-80.592,48.169,80.592H29.488Z" transform="translate(-23.217 -96.863)"/><path class="b" d="M256,375h16.142v27.008Z" transform="translate(-201.56 -295.253)"/><path class="b" d="M193.489,157.763a6.013,6.013,0,0,0,8.5,0l5.065-5.065-17.735-29.672-18.009,30.131,5.168,4.606a6.013,6.013,0,0,0,8.5,0,6.013,6.013,0,0,0,8.5,0Z" transform="translate(-134.883 -96.864)"/><path class="c" d="M180.093,402.008,196.235,375l16.142,27.008H180.093Z" transform="translate(-141.795 -295.253)"/><path class="d" d="M10,136.515,69.175,37.8l8.682,5.189L21.784,136.515Z" transform="translate(-7.873 -29.761)"/><path class="d" d="M250.765,136.515,191.59,37.8l-8.682,5.189,56.073,93.527Z" transform="translate(-144.011 -29.761)"/><path class="b" d="M404.169,19.019A11.109,11.109,0,0,1,401.928,10a9.516,9.516,0,1,0,10.545,13.192A11.109,11.109,0,0,1,404.169,19.019Z" transform="translate(-310.416 -7.873)"/><g transform="translate(0 0)"><path d="M108.578,127.546,89.342,95.457a2.127,2.127,0,0,0-3.648,2.187L103,126.513H96.175L41.816,35.846l5.031-3.007,29.008,48.39A2.127,2.127,0,1,0,79.5,79.043L62.816,51.205l8.992-15a2.126,2.126,0,0,0-.733-2.919L62.393,28.1a2.126,2.126,0,0,0-2.915.732l-5.038,8.4-5.037-8.4a2.127,2.127,0,0,0-2.915-.732l-8.682,5.189a2.126,2.126,0,0,0-.733,2.919l8.992,15L.3,127.546a2.127,2.127,0,0,0,1.824,3.22H106.754a2.127,2.127,0,0,0,1.824-3.22ZM62.034,32.839l5.031,3.007L60.336,47.069l-3.416-5.7Zm6.422,88.1L58.189,103.759H68.456Zm2.127-21.431H54.44a2.127,2.127,0,0,0-1.825,1.036L37.092,126.513H17.665L42.1,85.759a8.16,8.16,0,0,0,8.006-.282,8.169,8.169,0,0,0,8.5,0,8.17,8.17,0,0,0,8.132.212l24.477,40.826H72.709V101.632a2.127,2.127,0,0,0-2.127-2.127ZM64.546,82.03a3.89,3.89,0,0,1-4.436-.748,2.127,2.127,0,0,0-3.007,0,3.892,3.892,0,0,1-5.5,0,2.127,2.127,0,0,0-3.007,0,3.883,3.883,0,0,1-4.3.813L54.44,65.174Zm-16-26.689,3.416,5.7L12.706,126.513H5.881Zm-6.5,71.172L54.44,105.778l12.394,20.736Z" transform="translate(0 -21.886)"/><path d="M394.6,23.032a11.869,11.869,0,0,0,1.313.073,11.645,11.645,0,0,0,10.621-6.927,2.126,2.126,0,0,0-1.868-2.986A9,9,0,0,1,396.139,2.52a2.126,2.126,0,0,0-2.5-2.48,11.643,11.643,0,0,0,.966,22.993Zm-6.053-12.39a7.341,7.341,0,0,1,2.73-4.953q.242-.193.5-.364a13.252,13.252,0,0,0,9.2,11.506q-.223.21-.465.4a7.39,7.39,0,0,1-11.958-6.592Z" transform="translate(-302.537 0)"/><path d="M380.537,306.763a2.127,2.127,0,1,0-1.5-.623A2.133,2.133,0,0,0,380.537,306.763Z" transform="translate(-297.938 -238.179)"/></g></svg>